# xmcd
#
# Track frame offsets:
#	150
#	15935
#	30505
#	46415
#	62577
#	80380
#	92910
#	105975
#	119905
#	132442
#	148475
#
# Disc length: 2187 seconds
#
# Revision: 1
# Processed by: cddbd v1.4b41PL1 Copyright (c) Steve Scherf et al.
# Submitted via: audiograbber 1.80
#
DISCID=9308890b
DTITLE=Sawyer Brown - Drive Me Wild
DYEAR=1900
DGENRE=
TTITLE0=Break My Heart Again
TTITLE1=We're Everything To Me
TTITLE2=I'm In Love With Her
TTITLE3=Drive Me Wild
TTITLE4=Moon Over Miami
TTITLE5=All Wound Up
TTITLE6=800 Pound Jesus
TTITLE7=It All Comes Down To Love
TTITLE8=Every Little Thing
TTITLE9=Palyin' A Love Song
TTITLE10=Soul Searchin'
EXTD=
EXTT0=
EXTT1=
EXTT2=
EXTT3=
EXTT4=
EXTT5=
EXTT6=
EXTT7=
EXTT8=
EXTT9=
EXTT10=
PLAYORDER=
